<svg t="1726385558132" class="icon" viewBox="0 0 1024 1024" version="1.1" xmlns="http://www.w3.org/2000/svg" p-id="1180" width="32" height="32"><path d="M512.58 817c-213.11 0-270.11-63.57-270.11-306.16S299.47 206 512.58 206s268.95 62.26 268.95 304.84S725.68 817 512.58 817z" fill="#CCCCCC" p-id="1181"></path><path d="M512.81 497.18c-98.73 0-158.19-13.28-198.81-44.4-9.86-7.56-11.73-21.68-4.18-31.54 7.56-9.86 21.68-11.73 31.54-4.18 31.71 24.29 84.58 35.12 171.44 35.12s140.56-10.96 172.45-35.55c9.84-7.59 23.97-5.76 31.56 4.08s5.76 23.97-4.08 31.56c-40.83 31.48-100.62 44.92-199.92 44.92z" fill="#333333" p-id="1182"></path><path d="M512.25 462.25m-94.25 0a94.25 94.25 0 1 0 188.5 0 94.25 94.25 0 1 0-188.5 0Z" p-id="1183"></path></svg>